<?xml version="1.0" encoding="UTF-8" standalone="no"?>
<svg width="512" height="512" viewBox="0 0 512 512" fill="none" xmlns="http://www.w3.org/2000/svg">
  <!-- Background Circle -->
  <circle cx="256" cy="256" r="240" fill="#4CAF50"/>
  
  <!-- Dollar Sign -->
  <path d="M256 120C242.7 120 232 130.7 232 144V160H208C199.2 160 192 167.2 192 176C192 184.8 199.2 192 208 192H232V320H208C199.2 320 192 327.2 192 336C192 344.8 199.2 352 208 352H232V368C232 381.3 242.7 392 256 392C269.3 392 280 381.3 280 368V352H304C312.8 352 320 344.8 320 336C320 327.2 312.8 320 304 320H280V192H304C312.8 192 320 184.8 320 176C320 167.2 312.8 160 304 160H280V144C280 130.7 269.3 120 256 120Z" fill="white"/>
  
  <!-- Coins -->
  <circle cx="160" cy="320" r="48" fill="#FFC107" stroke="white" stroke-width="8"/>
  <circle cx="352" cy="320" r="48" fill="#FFC107" stroke="white" stroke-width="8"/>
  <circle cx="256" cy="368" r="48" fill="#FFC107" stroke="white" stroke-width="8"/>
</svg>
